<?xml version="1.0" ?><svg width="28px" height="28px" viewBox="0 0 28 28" fill="#000000" xmlns="http://www.w3.org/2000/svg"><path clip-rule="evenodd" d="M3.84613 3C2.82654 3 2 3.8238 2 4.84V24.16C2 25.1762 2.82654 26 3.84613 26H24.1539C25.1735 26 26 25.1762 26 24.16V7.6C26 6.58379 25.1735 5.76 24.1539 5.76H13.2325C12.8542 5.76 12.5083 5.54654 12.3387 5.20841L12.1539 4.84C12.1169 4.76631 12.0806 4.69263 12.0444 4.61942C11.6296 3.77853 11.2456 3 10.3077 3H3.84613ZM9.69055 4.84C10.0688 4.84 10.4148 5.05347 10.5844 5.39159L11.4156 7.04841C11.5852 7.38654 11.9312 7.6 12.3094 7.6H23.1539C23.7061 7.6 24.1539 8.04771 24.1539 8.6V23.16C24.1539 23.7123 23.7061 24.16 23.1539 24.16H4.84613C4.29388 24.16 3.84613 23.7123 3.84613 23.16V5.84C3.84613 5.28771 4.29388 4.84 4.84613 4.84H9.69055Z" fill="black" fill-rule="evenodd"/></svg>